Coordinates
version=1
nRows=9
nColumns=24
inDegrees=yes

Units are S.I. units (second, meters, Newtons, ...)
Angles are in degrees.

endheader
time	pelvis_tilt	pelvis_list	pelvis_rotation	pelvis_tx	pelvis_ty	pelvis_tz	hip_flexion_r	hip_adduction_r	hip_rotation_r	knee_angle_r	ankle_angle_r	subtalar_angle_r	mtp_angle_r	hip_flexion_l	hip_adduction_l	hip_rotation_l	knee_angle_l	ankle_angle_l	subtalar_angle_l	mtp_angle_l	lumbar_extension	lumbar_bending	lumbar_rotation
      8.05000000	     -1.99819621	      2.62631329	      2.19487063	      1.16919040	      0.67139146	     -0.20279686	     26.45805152	     -2.37099491	      1.53697748	    -28.20966719	      0.97257988	    -24.92884911	      0.00000000	     -0.29609917	      8.40427557	     -3.42953479	    -13.80374038	     20.20135854	     -7.53566725	      0.00000000	    -11.16403491	     -3.08327633	     -6.02397680
      8.06000000	     -2.10025498	      2.91736706	      2.84152394	      1.17668282	      0.67058450	     -0.20342945	     26.24549858	     -3.03848918	      0.98385291	    -24.17210952	      0.89529770	    -23.05789988	      0.00000000	     -1.11550575	      8.69410085	     -2.89441641	    -13.47803262	     20.39125088	     -7.37355710	      0.00000000	    -11.06228976	     -3.37719041	     -6.39345549
      8.07000000	     -2.18681943	      3.25549722	      3.52765618	      1.18429920	      0.66973472	     -0.20406706	     25.93277611	     -3.77269881	      0.18597707	    -20.09001729	      0.74877536	    -20.99980336	      0.00000000	     -1.97090821	      9.01325575	     -2.29921580	    -13.16394013	     20.52885334	     -7.23189503	      0.00000000	    -10.97198286	     -3.71804017	     -6.79470887
      8.08000000	     -2.25550111	      3.64431111	      4.22645077	      1.19204441	      0.66885161	     -0.20469554	     25.56266699	     -4.55808879	     -0.95426224	    -16.07955487	      0.72163213	    -18.54572660	      0.00000000	     -2.86632025	      9.36465660	     -1.66475979	    -12.86013137	     20.58700246	     -7.15620064	      0.00000000	    -10.89813829	     -4.11476929	     -7.20699569
      8.09000000	     -2.29461680	      4.05064567	      4.96151419	      1.19992347	      0.66796419	     -0.20531883	     25.14094616	     -5.34279156	     -2.51141435	    -12.23920639	      0.83480568	    -15.77206299	      0.00000000	     -3.80405603	      9.70324416	     -0.97375833	    -12.58788988	     20.61367526	     -7.08648465	      0.00000000	    -10.85622499	     -4.51661504	     -7.65147554
      8.10000000	     -2.30959582	      4.45823364	      5.70599189	      1.20790326	      0.66709234	     -0.20588850	     24.73201084	     -6.07641934	     -4.51836706	     -8.73472831	      1.21657712	    -12.55705243	      0.00000000	     -4.75278185	     10.00668381	     -0.27209671	    -12.38050513	     20.58235910	     -7.03853118	      0.00000000	    -10.84787030	     -4.92019856	     -8.09798298
      8.11000000	     -2.33235217	      4.83843995	      6.46644949	      1.21594528	      0.66624159	     -0.20638301	     24.39463342	     -6.70924342	     -6.86588975	     -5.66941373	      1.82671244	     -9.09097295	      0.00000000	     -5.64096525	     10.24101205	      0.41206670	    -12.29188784	     20.48784222	     -6.98778419	      0.00000000	    -10.83988378	     -5.29461779	     -8.58779465
      8.12000000	     -2.29803597	      5.10328290	      7.19363016	      1.22407872	      0.66549319	     -0.20675364	     24.06192752	     -7.11902259	     -9.33158843	     -3.07826747	      2.45283026	     -5.74673406	      0.00000000	     -6.52948181	     10.31194031	      1.08722155	    -12.31097594	     20.44204589	     -6.86597353	      0.00000000	    -10.88582515	     -5.53669948	     -8.97049801
      8.13000000	     -2.20116847	      5.24932490	      7.86858126	      1.23229828	      0.66486635	     -0.20698613	     23.73578387	     -7.30618929	    -11.65109596	     -1.02154947	      3.04095766	     -2.85631006	      0.00000000	     -7.40145634	     10.21921790	      1.72539668	    -12.45977128	     20.42811689	     -6.68691815	      0.00000000	    -10.98548747	     -5.64411079	     -9.24403861
